<svg width="1600" height="1100" viewBox="0 0 1600 1100" fill="none" xmlns="http://www.w3.org/2000/svg" role="img" aria-label="City aerial placeholder">
  <rect width="1600" height="1100" fill="#F2F2F2"/>
  <g opacity="0.9">
    <rect x="0" y="0" width="1600" height="220" fill="#E6E6E6"/>
    <rect x="0" y="880" width="1600" height="220" fill="#E6E6E6"/>
  </g>
  <g opacity="0.55">
    <rect x="120" y="140" width="240" height="160" fill="#D1D1D1"/>
    <rect x="420" y="120" width="190" height="200" fill="#D9D9D9"/>
    <rect x="660" y="150" width="280" height="150" fill="#CDCDCD"/>
    <rect x="980" y="110" width="220" height="210" fill="#D6D6D6"/>
    <rect x="1260" y="150" width="220" height="160" fill="#CFCFCF"/>

    <rect x="150" y="420" width="310" height="220" fill="#D8D8D8"/>
    <rect x="510" y="390" width="240" height="250" fill="#CECECE"/>
    <rect x="800" y="420" width="300" height="220" fill="#D4D4D4"/>
    <rect x="1150" y="395" width="300" height="250" fill="#CCCCCC"/>

    <rect x="140" y="720" width="260" height="170" fill="#D2D2D2"/>
    <rect x="440" y="700" width="260" height="190" fill="#DADADA"/>
    <rect x="740" y="730" width="260" height="160" fill="#CFCFCF"/>
    <rect x="1040" y="705" width="260" height="185" fill="#D7D7D7"/>
    <rect x="1340" y="735" width="140" height="155" fill="#D0D0D0"/>
  </g>

  <g opacity="0.25">
    <path d="M0 330H1600" stroke="#000" stroke-width="2"/>
    <path d="M0 660H1600" stroke="#000" stroke-width="2"/>
    <path d="M320 0V1100" stroke="#000" stroke-width="2"/>
    <path d="M800 0V1100" stroke="#000" stroke-width="2"/>
    <path d="M1280 0V1100" stroke="#000" stroke-width="2"/>
  </g>
</svg>
